<svg xmlns="http://www.w3.org/2000/svg" width="180" height="180" viewBox="0 0 180 180">
  <g id="favicon" transform="translate(3618 1220)">
    <circle id="Ellipse" cx="90" cy="90" r="90" transform="translate(-3618 -1220)" fill="#0c0b14"/>
    <g id="GroupLetters" transform="translate(-0.956 -0.628)">
      <path id="IA" d="M-24.338-60.372V0H-39.044V-60.372ZM23.908-10.664H1.376L-2.236,0H-17.63L4.214-60.372H21.242L43.086,0H27.52ZM20.124-22.016l-7.482-22.1-7.4,22.1Z" transform="translate(-3540 -1100)" fill="#fff"/>
      <path id="dot" d="M.086.688A8.913,8.913,0,0,1-6.235-1.591,7.385,7.385,0,0,1-8.686-7.224a7.616,7.616,0,0,1,2.451-5.762A8.817,8.817,0,0,1,.086-15.308a8.7,8.7,0,0,1,6.235,2.322A7.616,7.616,0,0,1,8.772-7.224,7.385,7.385,0,0,1,6.321-1.591,8.8,8.8,0,0,1,.086.688Z" transform="translate(-3483 -1100)" fill="#a787ff"/>
    </g>
  </g>
</svg>
